<svg width="71" height="77" viewBox="0 0 71 77" fill="none" xmlns="http://www.w3.org/2000/svg">
<path d="M25.3225 44.2411C27.9951 45.1805 30.8645 45.4159 33.6544 44.9244C36.4443 44.433 39.0606 43.2314 41.2513 41.4353C46.8303 36.7523 48.5798 29.0398 50.0027 21.8966L54.2124 0.767578L45.399 6.83612C39.0605 11.2003 32.5797 15.7047 28.1914 22.0259C23.803 28.347 21.8886 36.9766 25.4134 43.8167" fill="#455A64"/>
<path d="M26.6837 71.293C25.5744 63.2113 24.4331 55.025 25.2131 46.8566C25.9043 39.6021 28.1176 32.5177 32.6236 26.7065C35.0154 23.6284 37.9257 20.9911 41.2237 18.9131C42.0835 18.3706 42.8751 19.733 42.019 20.2735C36.3123 23.8799 31.8983 29.2054 29.4134 35.4822C26.669 42.462 26.2284 50.071 26.7011 57.4858C26.9868 61.9697 27.594 66.4242 28.2038 70.8734C28.2519 71.0746 28.2219 71.2866 28.1197 71.4665C28.0175 71.6464 27.8508 71.7808 27.6533 71.8425C27.4519 71.8967 27.2371 71.8694 27.0557 71.7663C26.8743 71.6633 26.7409 71.4929 26.6843 71.292L26.6837 71.293Z" fill="#CBCBCB"/>
<path d="M34.6665 58.3245C35.8125 60.0669 37.388 61.4848 39.2411 62.4416C41.0943 63.3983 43.1626 63.8616 45.2468 63.7869C50.6042 63.5327 55.0686 59.7952 59.0872 56.2456L70.9758 45.7489L63.1079 45.3723C57.4495 45.1013 51.6452 44.8471 46.2558 46.594C40.8663 48.3409 35.8961 52.5386 34.9107 58.1171" fill="#455A64"/>
<path d="M23.547 75.9389C28.8876 66.4894 35.0816 55.9874 46.1504 52.6306C49.2278 51.7005 52.4546 51.3673 55.6571 51.649C56.6666 51.7362 56.4145 53.2919 55.4071 53.2052C50.0388 52.7595 44.6808 54.177 40.2352 57.2191C35.9572 60.131 32.6262 64.1795 29.8073 68.4722C28.0803 71.102 26.5335 73.8432 24.9867 76.5807C24.4924 77.4558 23.047 76.8239 23.547 75.9389Z" fill="#CBCBCB"/>
<path d="M17.6194 10.3311C16.4337 9.7843 15.4793 8.79496 14.9378 7.55139C14.3963 6.30781 14.3056 4.89682 14.6829 3.58701C14.7439 3.38621 14.7824 3.17848 14.7975 2.96814C14.832 2.36804 14.683 1.77213 14.3727 1.26867C14.0623 0.765217 13.607 0.381001 13.0743 0.172925C12.5416 -0.0351507 11.9597 -0.0560207 11.4149 0.11342C10.8701 0.28286 10.3913 0.633582 10.0495 1.11365C9.93195 1.28397 9.83386 1.46839 9.75712 1.66306C9.24072 2.91853 8.30635 3.92915 7.13186 4.50249C5.95737 5.07583 4.62472 5.17186 3.38769 4.77234C3.19804 4.70769 3.00186 4.66697 2.8032 4.65102C2.23644 4.6145 1.67366 4.77225 1.19819 5.10087C0.722711 5.4295 0.359827 5.91151 0.163312 6.47556C-0.0332021 7.03962 -0.0529014 7.6557 0.107113 8.23254C0.267127 8.80938 0.598353 9.31629 1.05174 9.67823C1.2126 9.8027 1.38679 9.90662 1.57066 9.98785C2.75638 10.5346 3.71081 11.524 4.2523 12.7676C4.79378 14.0112 4.88452 15.4221 4.50721 16.7319C4.44615 16.9327 4.4077 17.1405 4.39262 17.3508C4.35812 17.9509 4.50708 18.5468 4.81744 19.0503C5.12781 19.5537 5.58308 19.9379 6.11581 20.146C6.64853 20.3541 7.23038 20.375 7.77518 20.2055C8.31997 20.0361 8.79869 19.6853 9.14051 19.2052C9.25806 19.0349 9.35624 18.8506 9.43297 18.6559C9.94938 17.4004 10.8837 16.3898 12.0582 15.8164C13.2327 15.2431 14.5653 15.147 15.8023 15.5465C15.992 15.6112 16.1882 15.6519 16.3869 15.6679C16.9537 15.7044 17.5164 15.5467 17.9919 15.2181C18.4674 14.8895 18.8303 14.4074 19.0268 13.8434C19.2233 13.2793 19.243 12.6632 19.083 12.0864C18.923 11.5095 18.5918 11.0026 18.1384 10.6407C17.9775 10.5162 17.8033 10.4123 17.6194 10.3311Z" fill="#FFC774"/>
<path d="M65.1973 31.1723C64.5807 30.9038 64.0844 30.4179 63.8028 29.8072C63.5212 29.1965 63.4741 28.5035 63.6703 27.8603C63.702 27.7616 63.722 27.6596 63.7298 27.5563C63.7478 27.2616 63.6703 26.9689 63.5089 26.7217C63.3475 26.4744 63.1108 26.2857 62.8338 26.1836C62.5568 26.0814 62.2542 26.0711 61.9709 26.1543C61.6876 26.2375 61.4386 26.4098 61.2609 26.6456C61.1998 26.7292 61.1488 26.8198 61.1089 26.9154C60.8403 27.532 60.3545 28.0283 59.7437 28.3099C59.133 28.5914 58.44 28.6386 57.7968 28.4424C57.6981 28.4106 57.5961 28.3906 57.4928 28.3828C57.1981 28.3649 56.9055 28.4423 56.6582 28.6037C56.411 28.7651 56.2223 29.0018 56.1201 29.2789C56.0179 29.5559 56.0076 29.8584 56.0909 30.1417C56.1741 30.425 56.3463 30.674 56.5821 30.8517C56.6657 30.9128 56.7563 30.9639 56.8519 31.0038C57.4685 31.2723 57.9648 31.7582 58.2464 32.3689C58.5279 32.9797 58.5751 33.6726 58.3789 34.3159C58.3472 34.4145 58.3272 34.5165 58.3193 34.6198C58.3014 34.9145 58.3788 35.2072 58.5402 35.4544C58.7016 35.7017 58.9384 35.8904 59.2154 35.9926C59.4924 36.0947 59.795 36.105 60.0782 36.0218C60.3615 35.9386 60.6105 35.7663 60.7882 35.5305C60.8493 35.4469 60.9004 35.3564 60.9403 35.2607C61.2088 34.6442 61.6947 34.1478 62.3054 33.8663C62.9162 33.5847 63.6091 33.5375 64.2524 33.7337C64.351 33.7655 64.453 33.7855 64.5563 33.7933C64.8511 33.8112 65.1437 33.7338 65.3909 33.5724C65.6382 33.411 65.8269 33.1743 65.9291 32.8973C66.0313 32.6202 66.0415 32.3177 65.9583 32.0344C65.8751 31.7511 65.7029 31.5021 65.4671 31.3244C65.3834 31.2633 65.2929 31.2122 65.1973 31.1723Z" fill="#FFC774"/>
</svg>
