<svg
  width="34"
  height="34"
  viewBox="0 0 34 34"
  fill="none"
  xmlns="http://www.w3.org/2000/svg"
>
  <g clip-path="url(#clip0_1_53)">
    <path
      d="M8.46302 29.7698H11.6455C11.9388 29.7698 12.1588 29.8579 12.3788 30.0777L14.6374 32.3216C16.4853 34.1843 18.2012 34.1696 20.0491 32.3216L22.3076 30.0777C22.5423 29.8579 22.7476 29.7698 23.0556 29.7698H26.2233C28.8487 29.7698 30.0659 28.5671 30.0659 25.9272V22.7595C30.0659 22.4515 30.154 22.2462 30.3738 22.0116L32.6177 19.753C34.4804 17.9051 34.4657 16.1892 32.6177 14.3413L30.3738 12.0827C30.154 11.8627 30.0659 11.6427 30.0659 11.3494V8.16693C30.0659 5.55639 28.8632 4.32445 26.2233 4.32445H23.0556C22.7476 4.32445 22.5423 4.25113 22.3076 4.03112L20.0491 1.78725C18.2012 -0.0753235 16.4853 -0.0606585 14.6374 1.78725L12.3788 4.03112C12.1588 4.25113 11.9388 4.32445 11.6455 4.32445H8.46302C5.83782 4.32445 4.62054 5.52705 4.62054 8.16693V11.3494C4.62054 11.6427 4.54723 11.8627 4.32722 12.0827L2.08334 14.3413C0.220773 16.1892 0.235438 17.9051 2.08334 19.753L4.32722 22.0116C4.54723 22.2462 4.62054 22.4515 4.62054 22.7595V25.9272C4.62054 28.5526 5.83782 29.7698 8.46302 29.7698Z"
      fill="#FF8174"
    />
    <path
      d="M15.7082 24.2113C15.2096 24.2113 14.7989 24.0206 14.4176 23.5073L10.7365 18.9902C10.5165 18.6969 10.3845 18.3596 10.3845 18.037C10.3845 17.3623 10.8978 16.8197 11.5724 16.8197C11.9831 16.8197 12.3057 16.9663 12.6724 17.4503L15.6496 21.2928L21.9119 11.232C22.1905 10.7773 22.5719 10.5573 22.9679 10.5573C23.5985 10.5573 24.1998 10.9973 24.1998 11.6719C24.1998 12.0092 24.0091 12.3466 23.8331 12.6399L16.9402 23.5073C16.6322 23.9766 16.2069 24.2113 15.7082 24.2113Z"
      fill="white"
    />
  </g>
  <defs>
    <clipPath id="clip0_1_53">
      <rect
        width="33.3172"
        height="33.332"
        fill="white"
        transform="translate(0.69191 0.395813)"
      />
    </clipPath>
  </defs>
</svg>
